<svg width="38" height="42" viewBox="0 0 38 42" fill="none" xmlns="http://www.w3.org/2000/svg">
<path d="M22.5625 3.9375C16.0173 3.9375 10.6875 9.82837 10.6875 17.0625C10.6875 20.2053 11.6848 23.0867 13.3594 25.3477L3.89648 35.8066L5.60352 37.6934L15.0664 27.2344C17.1121 29.0852 19.719 30.1875 22.5625 30.1875C29.1077 30.1875 34.4375 24.2966 34.4375 17.0625C34.4375 9.82837 29.1077 3.9375 22.5625 3.9375ZM22.5625 6.5625C27.8228 6.5625 32.0625 11.2485 32.0625 17.0625C32.0625 22.8765 27.8228 27.5625 22.5625 27.5625C17.3022 27.5625 13.0625 22.8765 13.0625 17.0625C13.0625 11.2485 17.3022 6.5625 22.5625 6.5625Z" fill="#B880FF"/>
</svg>
